<svg width="160" height="35" xmlns="http://www.w3.org/2000/svg"><g fill="none"><path d="M85.145 28.314c-1.522 0-2.937-.28-4.243-.838-1.307-.558-2.43-1.314-3.367-2.266a10.407 10.407 0 0 1-2.208-3.353 10.578 10.578 0 0 1-.8-4.097v-.077c0-1.448.267-2.82.8-4.115a10.588 10.588 0 0 1 2.208-3.393 10.264 10.264 0 0 1 3.367-2.286c1.306-.558 2.746-.837 4.319-.837 1.927 0 3.525.304 4.795.915a10.74 10.74 0 0 1 3.348 2.515l-3.538 3.808c-.66-.685-1.34-1.23-2.036-1.637-.699-.406-1.568-.611-2.608-.611a4.49 4.49 0 0 0-1.997.44 4.913 4.913 0 0 0-1.56 1.2 5.463 5.463 0 0 0-1.028 1.771 6.336 6.336 0 0 0-.36 2.155v.075c0 .788.119 1.526.36 2.21.242.686.59 1.285 1.047 1.79a4.951 4.951 0 0 0 1.637 1.2c.633.295 1.344.441 2.13.441.963 0 1.807-.199 2.53-.592.723-.394 1.44-.921 2.15-1.582l3.387 3.43a13.023 13.023 0 0 1-3.386 2.689c-1.27.697-2.919 1.045-4.947 1.045zm44.965-.456V.04h5.784v27.818h-5.784zm23.529-20.425h6.012l-7.84 20.921c-.379 1.042-.786 1.923-1.217 2.648-.432.723-.907 1.315-1.427 1.771-.52.46-1.11.788-1.77.993-.66.201-1.42.304-2.282.304-1.066 0-2.005-.127-2.817-.382a11.212 11.212 0 0 1-2.32-1.03l1.941-4.19c.38.227.791.42 1.236.571.444.153.856.23 1.237.23.508 0 .907-.096 1.198-.288.291-.19.565-.54.818-1.045l-7.99-20.503h6.125l4.644 13.91 4.452-13.91zm-26.742 4.953h-4.795v8.727c0 1.32.62 1.982 1.864 1.982a5.911 5.911 0 0 0 2.855-.723v4.649a9.048 9.048 0 0 1-2.017.855c-.736.218-1.586.326-2.55.326-.888 0-1.693-.096-2.416-.288a4.268 4.268 0 0 1-1.864-1.008c-.52-.484-.928-1.11-1.219-1.886-.29-.775-.437-1.761-.437-2.955V2.21h5.784v5.222h4.795v4.953zM23.167 21.15l3.386 3.43c-2.613 2.891-5.099 3.734-8.333 3.734-3.071 0-5.739-1.205-7.61-3.104-1.835-1.859-3.008-4.478-3.008-7.45v-.077c0-5.721 4.346-10.625 10.684-10.63v-.01c4.152.05 8.558 2.614 8.118 6.742-.323 3.008-2.284 4.823-5.523 6.265-3.591 1.595-6.155-.967-5.877-3.092 5.932-.159 7.023-3.639 5.571-4.807-2.906-2.338-8.778 2.424-6.903 7.743.733 2.08 2.525 3.43 4.814 3.43 1.866 0 3.217-.814 4.68-2.174zm89.592-8.86c.354 1.107.532 2.344.532 3.715v11.853h-5.48v-8.231a8.797 8.797 0 0 0-1.693-.552 9.117 9.117 0 0 0-1.998-.21c-1.243 0-2.22.241-2.93.725-.71.48-1.066 1.179-1.066 2.094v.077c0 .788.293 1.399.876 1.83.583.43 1.344.648 2.283.648 1.212 0 2.173-.304 2.959-.82v.624a4.173 4.173 0 0 1-3.916 4.173c-.25.016-.513.023-.793.023a9.028 9.028 0 0 1-2.72-.4 6.362 6.362 0 0 1-2.227-1.2 5.73 5.73 0 0 1-1.504-1.963c-.368-.775-.55-1.671-.55-2.686v-.077c0-1.117.202-2.084.608-2.897a5.56 5.56 0 0 1 1.694-2.019c.723-.533 1.584-.933 2.587-1.2 1.002-.266 2.112-.4 3.329-.4 1.04 0 1.946.075 2.72.23.775.152 1.529.353 2.266.608v-.342c0-1.221-.369-2.149-1.104-2.781-.736-.636-1.827-.955-3.273-.955-1.117 0-2.1.096-2.949.288-.85.19-1.745.462-2.683.819L96.281 8.84a23.158 23.158 0 0 1 3.5-1.181c1.22-.304 2.69-.456 4.415-.456 1.598 0 2.962.195 4.091.59 1.129.393 2.061.96 2.796 1.696.762.762 1.32 1.696 1.676 2.8zM69.565 7.433h2.047v20.425h-5.784v-2.897c-.33.434-.691.847-1.084 1.238a7.376 7.376 0 0 1-1.313 1.048 6.457 6.457 0 0 1-1.598.726 6.854 6.854 0 0 1-1.98.267c-2.207 0-3.913-.674-5.118-2.02-1.205-1.345-1.807-3.203-1.807-5.563V7.433h5.783v11.394c0 1.37.305 2.407.914 3.104.608.701 1.47 1.049 2.587 1.049 1.116 0 2-.348 2.645-1.049.647-.697.97-1.733.97-3.104V7.433h3.738zM44.07.04h5.784v27.818H44.07v-2.934a9.21 9.21 0 0 1-2.57 2.382c-1 .62-2.263.933-3.785.933a9.08 9.08 0 0 1-3.464-.685 8.569 8.569 0 0 1-2.966-2.04c-.864-.9-1.555-2.007-2.075-3.316-.52-1.308-.78-2.813-.78-4.515v-.075c0-1.702.26-3.21.78-4.518.52-1.306 1.205-2.413 2.054-3.315a8.395 8.395 0 0 1 2.95-2.038 9.295 9.295 0 0 1 2.996-.694 5.018 5.018 0 0 1 5.29 5.009v1.327c-1.538-1.563-3.58-1.747-5.223-1.011a4.788 4.788 0 0 0-1.58 1.144 5.512 5.512 0 0 0-1.083 1.77c-.267.686-.4 1.461-.4 2.326v.075c0 .837.133 1.606.4 2.307a5.503 5.503 0 0 0 1.084 1.79c.456.496.983.877 1.579 1.144a4.65 4.65 0 0 0 1.921.4 4.598 4.598 0 0 0 3.482-1.544c1.03-1.15 1.32-2.333 1.39-3.627V.04z" fill="#FFF"/><path d="M5.945 20.189c-.168-.792-.292-1.595-.292-2.429 0-.842.079-1.649.225-2.428-1.326-.563-2.668-1.317-4-2.207a153.76 153.76 0 0 1-1.733 4.08c.979.583 3.5 2.034 5.8 2.984" fill="#FCB64D"/></g></svg>